# xmcd
#
# Track frame offsets: 
#        183
#        17223
#        31873
#        51983
#        67105
#        81550
#        96700
#        109523
#        131325
#        149955
#
# Disc length: 2156 seconds
#
# Revision: 2
# Processed by: cddbd v1.4PL0 Copyright (c) Steve Scherf et al.
# Submitted via: ExactAudioCopy v0.95a4
#
DISCID=99086a0a
DTITLE=Robert Cray - New Blues
DYEAR=1997
DGENRE=Blues
TTITLE0=Who's Been Talkin'
TTITLE1=Nice As A Fool Can Be
TTITLE2=If You're Thinkin' What I'm Thinkin'
TTITLE3=The Welfare (Turns Its Back On You)
TTITLE4=I'm Gonna Forget About You
TTITLE5=Sleeping In The Ground
TTITLE6=Too Many Cooks
TTITLE7=I'd Rather Be A Wino
TTITLE8=The Score
TTITLE9=That's What I'll Do
EXTD=
EXTT0=
EXTT1=
EXTT2=
EXTT3=
EXTT4=
EXTT5=
EXTT6=
EXTT7=
EXTT8=
EXTT9=
PLAYORDER=
